inDegrees=yes
name=ik_lifting_orientations
DataType=double
version=3
OpenSimVersion=4.5-2024-01-10-34fd6af
endheader
time	pelvis_tilt	pelvis_list	pelvis_rotation	pelvis_tx	pelvis_ty	pelvis_tz	hip_flexion_r	hip_adduction_r	hip_rotation_r	knee_angle_r	knee_angle_r_beta	ankle_angle_r	subtalar_angle_r	mtp_angle_r	hip_flexion_l	hip_adduction_l	hip_rotation_l	knee_angle_l	knee_angle_l_beta	ankle_angle_l	subtalar_angle_l	mtp_angle_l	lumbar_extension	lumbar_bending	lumbar_rotation	arm_flex_r	arm_add_r	arm_rot_r	elbow_flex_r	pro_sup_r	wrist_flex_r	wrist_dev_r	arm_flex_l	arm_add_l	arm_rot_l	elbow_flex_l	pro_sup_l	wrist_flex_l	wrist_dev_l
0.71	0.9471122807927165	1.857460369031231	-95.0582838300224	0	0.9399999998679526	0	45.13475127040768	-10.05322069490223	0	60.38218954160789	1.053868017064343	-5.010022633778214	0	0	45.13475127040768	-10.05322069490223	0	60.38218954160789	1.053868017064343	-5.010022633778214	0	0	-1.244889851213014	0.09501791468880236	11.9883423212532	4.0189013883666	-6.394808840381889	-3.61733277534241	0.7126690474002061	0.5906917272302201	0	0	0	-12.18809849272499	0	89.42763901893814	0.5906917272302201	0	0
0.72	0.997180693584792	2.158178898859113	-95.18227726123024	0	0.9399999998679526	0	45.13471025006277	-10.053164072119	0	60.38209827417224	1.053866424147091	-5.010008723198935	0	0	45.13471025006277	-10.053164072119	0	60.38209827417224	1.053866424147091	-5.010008723198935	0	0	-1.37610636649771	0.1855663976275953	12.01526974751549	4.366553551346385	-6.987981843750608	-3.780260900003238	0.6385391459497973	0.5905666098253892	0	0	0	-12.18853694190678	0	89.42776021623692	0.5905666098253892	0	0
0.73	1.114287534745763	2.600442029730091	-95.50038056043017	0	0.9399999998679526	0	45.13467213988679	-10.05311159164697	0	60.38201336226005	1.05386494215465	-5.009995838324974	0	0	45.13467213988679	-10.05311159164697	0	60.38201336226005	1.05386494215465	-5.009995838324974	0	0	-1.344649734996295	0.2144971318881983	12.19998096033753	4.666787325280294	-7.559145636124125	-3.87049890002026	0.5872622070983593	0.5904502982338837	0	0	0	-12.18894473445107	0	89.42787288362135	0.5904502982338837	0	0
0.74	1.234922679099882	3.040205517924405	-95.82118161000811	0	0.9399999998679526	0	45.13463674744474	-10.05306288474816	0	60.38193450405983	1.053863565819414	-5.00998388331566	0	0	45.13463674744474	-10.05306288474816	0	60.38193450405983	1.053863565819414	-5.00998388331566	0	0	-1.499946687730598	0.2957273944173585	12.39488297285563	4.970766541833881	-8.229033911945375	-3.985639701023736	0.6428184093455213	0.5903422737064675	0	0	0	-12.18932348645505	0	89.4279775235872	0.5903422737064675	0	0
0.75	1.395492651709016	3.612196865814544	-96.288205682045	0	0.9399999998679526	0	45.13460283009374	-10.05301629769376	0	60.38185884889001	1.053862245387604	-5.009972454506022	0	0	45.13460283009374	-10.05301629769376	0	60.38185884889001	1.053862245387604	-5.009972454506022	0	0	-1.470606571635578	0.3314442298388836	12.68640962940888	5.112168190456826	-8.86766091834907	-4.071125265253746	0.9133788052912412	0.5902387014482552	0	0	0	-12.18968677032692	0	89.42807785077997	0.5902387014482552	0	0
0.76	1.558173987572729	4.208650636912987	-96.75686679256208	0	0.9399999998679526	0	45.13457006607022	-10.05297135383231	0	60.38178572146801	1.053860969073317	-5.009961433174419	0	0	45.13457006607022	-10.05297135383231	0	60.38178572146801	1.053860969073317	-5.009961433174419	0	0	-1.408196385655513	0.3681060256280398	12.98207165540596	5.291048639018878	-9.476047796570318	-4.168056453363048	1.166431493005277	0.5901386218938396	0	0	0	-12.19003788371829	0	89.42817479470042	0.5901386218938396	0	0
0.77	1.728545489744074	4.806016505900428	-97.23633673888064	0	0.9399999998679526	0	45.13453530215364	-10.05292365267377	0	60.38170818331385	1.05385961577723	-5.009949736736502	0	0	45.13453530215364	-10.05292365267377	0	60.38170818331385	1.05385961577723	-5.009949736736502	0	0	-1.033837816276092	0.3287262595818224	13.20333952711302	5.178603143634443	-9.88862830337716	-4.282601904401712	1.466811970550425	0.5900324556094325	0	0	0	-12.1904102788272	0	89.42827763464503	0.5900324556094325	0	0
0.78	1.889094390470374	5.449796824616835	-97.70695860899227	0	0.9399999998679526	0	45.13449165344117	-10.05286384688567	0	60.38161076776298	1.053857915555125	-5.009935078871433	0	0	45.13449165344117	-10.05286384688567	0	60.38161076776298	1.053857915555125	-5.009935078871433	0	0	-0.3744383912960784	0.2284271169570723	13.60515524978608	4.809719304342762	-10.12178990427771	-4.525350915357699	1.835713031725391	0.5898991150280178	0	0	0	-12.1908781027852	0	89.42840679747766	0.5898991150280178	0	0
0.79	2.048866670600246	6.01179102111525	-98.2406120730767	0	0.9399999998679526	0	45.13444841038478	-10.05280470096035	0	60.38151417711546	1.053856229730299	-5.009920590354578	0	0	45.13444841038478	-10.05280470096035	0	60.38151417711546	1.053856229730299	-5.009920590354578	0	0	0.5046637827803785	0.07247057471787556	14.12622768437787	4.142774755500643	-10.22262617725842	-4.839897260726915	2.181633488040945	0.5897669617823321	0	0	0	-12.19134190399677	0	89.42853481017571	0.5897669617823321	0	0
0.8	2.24145775650226	6.699429591515059	-98.65372914926519	0	0.9399999998679526	0	45.13439349637771	-10.05272993019559	0	60.38139116518661	1.053854082767122	-5.00990229465443	0	0	45.13439349637771	-10.05272993019559	0	60.38139116518661	1.053854082767122	-5.00990229465443	0	0	1.813829362486796	-0.1541406656660466	14.64488068228949	3.159175877413586	-10.13955388266981	-5.240383500485031	2.569973560899658	0.5895989404409751	0	0	0	-12.1919321655918	0	89.42869756717212	0.5895989404409751	0	0
0.8100000000000001	2.34490310210652	7.396789387398351	-98.75122047627599	0	0.9399999998679526	0	45.13435819041973	-10.05268291290433	0	60.3813107704531	1.053852679614321	-5.009890843424045	0	0	45.13435819041973	-10.05268291290433	0	60.3813107704531	1.053852679614321	-5.009890843424045	0	0	3.312188002827713	-0.3236229325745037	14.78421907376064	2.173441229508199	-9.912991155108278	-5.427646828634704	2.810760036012104	0.5894902123762407	0	0	0	-12.19231619648204	0	89.42880288863611	0.5894902123762407	0	0
0.82	2.501816942063515	8.010678329359823	-98.87259381599969	0	0.9399999998679526	0	45.13431412218259	-10.05262364505386	0	60.38121124296223	1.053850942531909	-5.009876383043591	0	0	45.13431412218259	-10.05262364505386	0	60.38121124296223	1.053850942531909	-5.009876383043591	0	0	4.924149476043758	-0.6080522697405775	15.02458453949381	1.162116623952357	-9.551727207492611	-5.618152682243413	2.861758139635933	0.5893549241008302	0	0	0	-12.19279277312304	0	89.42893393814121	0.5893549241008302	0	0
